<svg xmlns="http://www.w3.org/2000/svg" width="16" height="16" viewBox="0 0 16 16" shape-rendering="crispEdges"><rect x="4" y="0" width="1" height="1" fill="rgb(104,156,87)" opacity="0.122"/><rect x="5" y="0" width="1" height="1" fill="rgb(103,159,85)" opacity="0.439"/><rect x="6" y="0" width="1" height="1" fill="rgb(103,160,86)" opacity="0.706"/><rect x="7" y="0" width="1" height="1" fill="rgb(103,160,85)" opacity="0.827"/><rect x="8" y="0" width="1" height="1" fill="rgb(103,159,86)" opacity="0.78"/><rect x="9" y="0" width="1" height="1" fill="rgb(102,156,86)" opacity="0.329"/><rect x="10" y="0" width="1" height="1" fill="rgb(102,158,85)" opacity="0.365"/><rect x="11" y="0" width="1" height="1" fill="rgb(102,156,85)" opacity="0.098"/><rect x="2" y="1" width="1" height="1" fill="rgb(104,153,88)" opacity="0.035"/><rect x="3" y="1" width="1" height="1" fill="rgb(103,155,86)" opacity="0.204"/><rect x="4" y="1" width="1" height="1" fill="rgb(103,158,86)" opacity="0.502"/><rect x="5" y="1" width="1" height="1" fill="rgb(103,161,86)" opacity="0.992"/><rect x="6" y="1" width="1" height="1" fill="rgb(103,161,85)"/><rect x="7" y="1" width="1" height="1" fill="rgb(103,161,85)"/><rect x="8" y="1" width="1" height="1" fill="rgb(102,159,85)" opacity="0.624"/><rect x="9" y="1" width="1" height="1" fill="rgb(102,158,85)" opacity="0.592"/><rect x="10" y="1" width="1" height="1" fill="rgb(103,161,85)" opacity="0.988"/><rect x="11" y="1" width="1" height="1" fill="rgb(102,159,85)" opacity="0.549"/><rect x="12" y="1" width="1" height="1" fill="rgb(103,153,87)" opacity="0.161"/><rect x="13" y="1" width="1" height="1" fill="rgb(103,156,85)" opacity="0.047"/><rect x="1" y="2" width="1" height="1" fill="rgb(104,152,85)" opacity="0.027"/><rect x="2" y="2" width="1" height="1" fill="rgb(103,159,86)" opacity="0.506"/><rect x="3" y="2" width="1" height="1" fill="rgb(102,160,86)" opacity="0.867"/><rect x="4" y="2" width="1" height="1" fill="rgb(102,157,86)" opacity="0.435"/><rect x="5" y="2" width="1" height="1" fill="rgb(103,160,85)" opacity="0.906"/><rect x="6" y="2" width="1" height="1" fill="rgb(103,161,85)"/><rect x="7" y="2" width="1" height="1" fill="rgb(103,160,85)" opacity="0.847"/><rect x="8" y="2" width="1" height="1" fill="rgb(102,157,85)" opacity="0.459"/><rect x="9" y="2" width="1" height="1" fill="rgb(103,161,85)" opacity="0.937"/><rect x="10" y="2" width="1" height="1" fill="rgb(103,161,85)"/><rect x="11" y="2" width="1" height="1" fill="rgb(103,160,85)" opacity="0.824"/><rect x="12" y="2" width="1" height="1" fill="rgb(102,156,85)" opacity="0.388"/><rect x="13" y="2" width="1" height="1" fill="rgb(102,156,85)" opacity="0.329"/><rect x="1" y="3" width="1" height="1" fill="rgb(102,158,85)" opacity="0.392"/><rect x="2" y="3" width="1" height="1" fill="rgb(103,161,85)" opacity="0.969"/><rect x="3" y="3" width="1" height="1" fill="rgb(103,161,85)"/><rect x="4" y="3" width="1" height="1" fill="rgb(102,159,85)" opacity="0.667"/><rect x="5" y="3" width="1" height="1" fill="rgb(102,158,85)" opacity="0.525"/><rect x="6" y="3" width="1" height="1" fill="rgb(103,161,85)" opacity="0.957"/><rect x="7" y="3" width="1" height="1" fill="rgb(102,158,85)" opacity="0.588"/><rect x="8" y="3" width="1" height="1" fill="rgb(102,160,85)" opacity="0.757"/><rect x="9" y="3" width="1" height="1" fill="rgb(103,161,85)"/><rect x="10" y="3" width="1" height="1" fill="rgb(103,161,85)" opacity="0.965"/><rect x="11" y="3" width="1" height="1" fill="rgb(102,158,85)" opacity="0.616"/><rect x="12" y="3" width="1" height="1" fill="rgb(103,158,86)" opacity="0.478"/><rect x="13" y="3" width="1" height="1" fill="rgb(102,159,85)" opacity="0.631"/><rect x="14" y="3" width="1" height="1" fill="rgb(102,158,85)" opacity="0.318"/><rect x="0" y="4" width="1" height="1" fill="rgb(103,152,85)" opacity="0.063"/><rect x="1" y="4" width="1" height="1" fill="rgb(102,159,85)" opacity="0.588"/><rect x="2" y="4" width="1" height="1" fill="rgb(103,160,85)" opacity="0.863"/><rect x="3" y="4" width="1" height="1" fill="rgb(103,161,85)" opacity="0.976"/><rect x="4" y="4" width="1" height="1" fill="rgb(103,161,85)" opacity="0.984"/><rect x="5" y="4" width="1" height="1" fill="rgb(102,159,85)" opacity="0.58"/><rect x="6" y="4" width="1" height="1" fill="rgb(102,157,85)" opacity="0.365"/><rect x="7" y="4" width="1" height="1" fill="rgb(102,158,85)" opacity="0.475"/><rect x="8" y="4" width="1" height="1" fill="rgb(103,161,85)" opacity="0.969"/><rect x="9" y="4" width="1" height="1" fill="rgb(103,161,85)" opacity="0.973"/><rect x="10" y="4" width="1" height="1" fill="rgb(102,158,85)" opacity="0.592"/><rect x="11" y="4" width="1" height="1" fill="rgb(103,159,85)" opacity="0.698"/><rect x="12" y="4" width="1" height="1" fill="rgb(103,161,85)" opacity="0.992"/><rect x="13" y="4" width="1" height="1" fill="rgb(103,161,85)"/><rect x="14" y="4" width="1" height="1" fill="rgb(103,160,86)" opacity="0.816"/><rect x="15" y="4" width="1" height="1" fill="rgb(103,155,88)" opacity="0.129"/><rect x="0" y="5" width="1" height="1" fill="rgb(102,158,85)" opacity="0.388"/><rect x="1" y="5" width="1" height="1" fill="rgb(102,160,85)" opacity="0.753"/><rect x="2" y="5" width="1" height="1" fill="rgb(102,159,85)" opacity="0.616"/><rect x="3" y="5" width="1" height="1" fill="rgb(102,158,86)" opacity="0.553"/><rect x="4" y="5" width="1" height="1" fill="rgb(103,160,86)" opacity="0.871"/><rect x="5" y="5" width="1" height="1" fill="rgb(103,161,85)" opacity="0.98"/><rect x="6" y="5" width="1" height="1" fill="rgb(102,158,85)" opacity="0.424"/><rect x="7" y="5" width="1" height="1" fill="rgb(102,158,85)" opacity="0.404"/><rect x="8" y="5" width="1" height="1" fill="rgb(103,161,85)" opacity="0.984"/><rect x="9" y="5" width="1" height="1" fill="rgb(102,159,85)" opacity="0.608"/><rect x="10" y="5" width="1" height="1" fill="rgb(103,158,85)" opacity="0.627"/><rect x="11" y="5" width="1" height="1" fill="rgb(103,160,85)" opacity="0.918"/><rect x="12" y="5" width="1" height="1" fill="rgb(102,160,85)" opacity="0.757"/><rect x="13" y="5" width="1" height="1" fill="rgb(102,159,85)" opacity="0.608"/><rect x="14" y="5" width="1" height="1" fill="rgb(102,159,86)" opacity="0.506"/><rect x="15" y="5" width="1" height="1" fill="rgb(103,157,87)" opacity="0.212"/><rect x="0" y="6" width="1" height="1" fill="rgb(103,159,86)" opacity="0.71"/><rect x="1" y="6" width="1" height="1" fill="rgb(103,161,85)" opacity="0.996"/><rect x="2" y="6" width="1" height="1" fill="rgb(103,161,85)" opacity="0.996"/><rect x="3" y="6" width="1" height="1" fill="rgb(102,160,85)" opacity="0.824"/><rect x="4" y="6" width="1" height="1" fill="rgb(102,157,85)" opacity="0.522"/><rect x="5" y="6" width="1" height="1" fill="rgb(103,161,85)" opacity="0.922"/><rect x="6" y="6" width="1" height="1" fill="rgb(102,160,85)" opacity="0.89"/><rect x="7" y="6" width="1" height="1" fill="rgb(101,157,84)" opacity="0.345"/><rect x="8" y="6" width="1" height="1" fill="rgb(102,158,85)" opacity="0.459"/><rect x="9" y="6" width="1" height="1" fill="rgb(103,156,85)" opacity="0.29"/><rect x="10" y="6" width="1" height="1" fill="rgb(103,158,85)" opacity="0.51"/><rect x="11" y="6" width="1" height="1" fill="rgb(102,158,85)" opacity="0.525"/><rect x="12" y="6" width="1" height="1" fill="rgb(102,158,85)" opacity="0.537"/><rect x="13" y="6" width="1" height="1" fill="rgb(102,158,85)" opacity="0.584"/><rect x="14" y="6" width="1" height="1" fill="rgb(102,160,85)" opacity="0.722"/><rect x="15" y="6" width="1" height="1" fill="rgb(102,159,85)" opacity="0.592"/><rect x="0" y="7" width="1" height="1" fill="rgb(103,160,85)" opacity="0.843"/><rect x="1" y="7" width="1" height="1" fill="rgb(103,159,85)" opacity="0.776"/><rect x="2" y="7" width="1" height="1" fill="rgb(103,158,85)" opacity="0.573"/><rect x="3" y="7" width="1" height="1" fill="rgb(102,160,85)" opacity="0.694"/><rect x="4" y="7" width="1" height="1" fill="rgb(101,158,86)" opacity="0.525"/><rect x="5" y="7" width="1" height="1" fill="rgb(102,158,86)" opacity="0.494"/><rect x="6" y="7" width="1" height="1" fill="rgb(102,161,85)" opacity="0.98"/><rect x="7" y="7" width="1" height="1" fill="rgb(102,159,85)" opacity="0.569"/><rect x="8" y="7" width="1" height="1" fill="rgb(103,159,84)" opacity="0.518"/><rect x="9" y="7" width="1" height="1" fill="rgb(103,160,85)" opacity="0.91"/><rect x="10" y="7" width="1" height="1" fill="rgb(102,161,85)" opacity="0.906"/><rect x="11" y="7" width="1" height="1" fill="rgb(102,160,85)" opacity="0.765"/><rect x="12" y="7" width="1" height="1" fill="rgb(102,158,85)" opacity="0.545"/><rect x="13" y="7" width="1" height="1" fill="rgb(102,159,86)" opacity="0.631"/><rect x="14" y="7" width="1" height="1" fill="rgb(102,159,85)" opacity="0.635"/><rect x="15" y="7" width="1" height="1" fill="rgb(102,158,85)" opacity="0.455"/><rect x="0" y="8" width="1" height="1" fill="rgb(102,160,85)" opacity="0.749"/><rect x="1" y="8" width="1" height="1" fill="rgb(103,161,85)" opacity="0.98"/><rect x="2" y="8" width="1" height="1" fill="rgb(102,160,85)" opacity="0.831"/><rect x="3" y="8" width="1" height="1" fill="rgb(102,160,85)" opacity="0.722"/><rect x="4" y="8" width="1" height="1" fill="rgb(103,159,85)" opacity="0.659"/><rect x="5" y="8" width="1" height="1" fill="rgb(102,157,85)" opacity="0.396"/><rect x="6" y="8" width="1" height="1" fill="rgb(102,158,85)" opacity="0.506"/><rect x="7" y="8" width="1" height="1" fill="rgb(102,158,85)" opacity="0.529"/><rect x="8" y="8" width="1" height="1" fill="rgb(103,160,85)" opacity="0.914"/><rect x="9" y="8" width="1" height="1" fill="rgb(103,161,85)" opacity="0.996"/><rect x="10" y="8" width="1" height="1" fill="rgb(102,159,85)" opacity="0.706"/><rect x="11" y="8" width="1" height="1" fill="rgb(102,158,85)" opacity="0.533"/><rect x="12" y="8" width="1" height="1" fill="rgb(103,160,85)" opacity="0.89"/><rect x="13" y="8" width="1" height="1" fill="rgb(103,161,85)" opacity="0.988"/><rect x="14" y="8" width="1" height="1" fill="rgb(102,160,86)" opacity="0.827"/><rect x="15" y="8" width="1" height="1" fill="rgb(102,160,85)" opacity="0.82"/><rect x="0" y="9" width="1" height="1" fill="rgb(101,156,84)" opacity="0.353"/><rect x="1" y="9" width="1" height="1" fill="rgb(102,159,84)" opacity="0.635"/><rect x="2" y="9" width="1" height="1" fill="rgb(102,160,85)" opacity="0.733"/><rect x="3" y="9" width="1" height="1" fill="rgb(103,160,85)" opacity="0.851"/><rect x="4" y="9" width="1" height="1" fill="rgb(103,161,85)" opacity="0.953"/><rect x="5" y="9" width="1" height="1" fill="rgb(103,161,85)" opacity="0.965"/><rect x="6" y="9" width="1" height="1" fill="rgb(102,158,86)" opacity="0.447"/><rect x="7" y="9" width="1" height="1" fill="rgb(102,158,85)" opacity="0.427"/><rect x="8" y="9" width="1" height="1" fill="rgb(103,160,85)" opacity="0.973"/><rect x="9" y="9" width="1" height="1" fill="rgb(103,159,85)" opacity="0.604"/><rect x="10" y="9" width="1" height="1" fill="rgb(102,158,85)" opacity="0.561"/><rect x="11" y="9" width="1" height="1" fill="rgb(102,161,85)" opacity="0.937"/><rect x="12" y="9" width="1" height="1" fill="rgb(102,161,85)" opacity="0.922"/><rect x="13" y="9" width="1" height="1" fill="rgb(102,159,85)" opacity="0.635"/><rect x="14" y="9" width="1" height="1" fill="rgb(102,159,85)" opacity="0.612"/><rect x="15" y="9" width="1" height="1" fill="rgb(103,159,85)" opacity="0.729"/><rect x="0" y="10" width="1" height="1" fill="rgb(102,158,85)" opacity="0.427"/><rect x="1" y="10" width="1" height="1" fill="rgb(102,160,85)" opacity="0.827"/><rect x="2" y="10" width="1" height="1" fill="rgb(103,159,85)" opacity="0.714"/><rect x="3" y="10" width="1" height="1" fill="rgb(102,159,86)" opacity="0.651"/><rect x="4" y="10" width="1" height="1" fill="rgb(102,158,85)" opacity="0.569"/><rect x="5" y="10" width="1" height="1" fill="rgb(102,159,85)" opacity="0.643"/><rect x="6" y="10" width="1" height="1" fill="rgb(102,160,85)" opacity="0.761"/><rect x="7" y="10" width="1" height="1" fill="rgb(102,157,85)" opacity="0.431"/><rect x="8" y="10" width="1" height="1" fill="rgb(102,158,86)" opacity="0.471"/><rect x="9" y="10" width="1" height="1" fill="rgb(102,157,85)" opacity="0.341"/><rect x="10" y="10" width="1" height="1" fill="rgb(102,158,85)" opacity="0.565"/><rect x="11" y="10" width="1" height="1" fill="rgb(102,158,85)" opacity="0.545"/><rect x="12" y="10" width="1" height="1" fill="rgb(102,155,86)" opacity="0.31"/><rect x="13" y="10" width="1" height="1" fill="rgb(102,158,86)" opacity="0.592"/><rect x="14" y="10" width="1" height="1" fill="rgb(103,161,85)" opacity="0.957"/><rect x="15" y="10" width="1" height="1" fill="rgb(102,159,85)" opacity="0.486"/><rect x="0" y="11" width="1" height="1" fill="rgb(103,156,86)" opacity="0.149"/><rect x="1" y="11" width="1" height="1" fill="rgb(103,160,85)" opacity="0.839"/><rect x="2" y="11" width="1" height="1" fill="rgb(103,161,85)"/><rect x="3" y="11" width="1" height="1" fill="rgb(103,161,85)"/><rect x="4" y="11" width="1" height="1" fill="rgb(103,161,85)" opacity="0.969"/><rect x="5" y="11" width="1" height="1" fill="rgb(102,159,85)" opacity="0.773"/><rect x="6" y="11" width="1" height="1" fill="rgb(102,157,85)" opacity="0.447"/><rect x="7" y="11" width="1" height="1" fill="rgb(102,153,85)" opacity="0.125"/><rect x="8" y="11" width="1" height="1" fill="rgb(102,159,85)" opacity="0.616"/><rect x="9" y="11" width="1" height="1" fill="rgb(103,161,85)" opacity="0.973"/><rect x="10" y="11" width="1" height="1" fill="rgb(103,161,85)" opacity="0.976"/><rect x="11" y="11" width="1" height="1" fill="rgb(103,161,85)" opacity="0.929"/><rect x="12" y="11" width="1" height="1" fill="rgb(103,160,85)" opacity="0.769"/><rect x="13" y="11" width="1" height="1" fill="rgb(102,158,86)" opacity="0.576"/><rect x="14" y="11" width="1" height="1" fill="rgb(102,158,85)" opacity="0.569"/><rect x="15" y="11" width="1" height="1" fill="rgb(102,157,86)" opacity="0.157"/><rect x="1" y="12" width="1" height="1" fill="rgb(102,159,85)" opacity="0.4"/><rect x="2" y="12" width="1" height="1" fill="rgb(103,161,85)" opacity="0.969"/><rect x="3" y="12" width="1" height="1" fill="rgb(103,161,85)"/><rect x="4" y="12" width="1" height="1" fill="rgb(103,161,85)"/><rect x="5" y="12" width="1" height="1" fill="rgb(103,161,85)"/><rect x="6" y="12" width="1" height="1" fill="rgb(103,160,85)" opacity="0.824"/><rect x="7" y="12" width="1" height="1" fill="rgb(102,156,85)" opacity="0.224"/><rect x="8" y="12" width="1" height="1" fill="rgb(103,160,85)" opacity="0.843"/><rect x="9" y="12" width="1" height="1" fill="rgb(103,161,85)"/><rect x="10" y="12" width="1" height="1" fill="rgb(103,161,85)"/><rect x="11" y="12" width="1" height="1" fill="rgb(103,161,85)"/><rect x="12" y="12" width="1" height="1" fill="rgb(103,161,85)"/><rect x="13" y="12" width="1" height="1" fill="rgb(102,160,85)" opacity="0.929"/><rect x="14" y="12" width="1" height="1" fill="rgb(102,156,85)" opacity="0.271"/><rect x="1" y="13" width="1" height="1" fill="rgb(103,154,87)" opacity="0.031"/><rect x="2" y="13" width="1" height="1" fill="rgb(102,159,85)" opacity="0.522"/><rect x="3" y="13" width="1" height="1" fill="rgb(103,161,85)" opacity="0.969"/><rect x="4" y="13" width="1" height="1" fill="rgb(103,161,85)"/><rect x="5" y="13" width="1" height="1" fill="rgb(103,161,85)"/><rect x="6" y="13" width="1" height="1" fill="rgb(103,161,85)" opacity="0.957"/><rect x="7" y="13" width="1" height="1" fill="rgb(102,157,85)" opacity="0.325"/><rect x="8" y="13" width="1" height="1" fill="rgb(103,160,85)" opacity="0.816"/><rect x="9" y="13" width="1" height="1" fill="rgb(103,161,85)"/><rect x="10" y="13" width="1" height="1" fill="rgb(103,161,85)"/><rect x="11" y="13" width="1" height="1" fill="rgb(103,161,85)"/><rect x="12" y="13" width="1" height="1" fill="rgb(103,161,85)" opacity="0.973"/><rect x="13" y="13" width="1" height="1" fill="rgb(103,159,86)" opacity="0.541"/><rect x="14" y="13" width="1" height="1" fill="rgb(104,155,88)" opacity="0.039"/><rect x="2" y="14" width="1" height="1" fill="rgb(102,154,86)" opacity="0.031"/><rect x="3" y="14" width="1" height="1" fill="rgb(102,159,86)" opacity="0.404"/><rect x="4" y="14" width="1" height="1" fill="rgb(103,160,85)" opacity="0.847"/><rect x="5" y="14" width="1" height="1" fill="rgb(103,161,85)" opacity="0.996"/><rect x="6" y="14" width="1" height="1" fill="rgb(103,161,85)" opacity="0.929"/><rect x="7" y="14" width="1" height="1" fill="rgb(103,157,86)" opacity="0.286"/><rect x="8" y="14" width="1" height="1" fill="rgb(103,160,86)" opacity="0.835"/><rect x="9" y="14" width="1" height="1" fill="rgb(103,161,85)"/><rect x="10" y="14" width="1" height="1" fill="rgb(103,161,85)" opacity="0.992"/><rect x="11" y="14" width="1" height="1" fill="rgb(103,160,85)" opacity="0.855"/><rect x="12" y="14" width="1" height="1" fill="rgb(103,158,86)" opacity="0.42"/><rect x="13" y="14" width="1" height="1" fill="rgb(103,154,87)" opacity="0.035"/><rect x="3" y="15" width="1" height="1" fill="rgb(100,144,97)" opacity="0.004"/><rect x="4" y="15" width="1" height="1" fill="rgb(104,157,86)" opacity="0.153"/><rect x="5" y="15" width="1" height="1" fill="rgb(103,159,86)" opacity="0.486"/><rect x="6" y="15" width="1" height="1" fill="rgb(103,159,85)" opacity="0.635"/><rect x="7" y="15" width="1" height="1" fill="rgb(103,156,86)" opacity="0.192"/><rect x="8" y="15" width="1" height="1" fill="rgb(102,159,85)" opacity="0.722"/><rect x="9" y="15" width="1" height="1" fill="rgb(103,160,85)" opacity="0.753"/><rect x="10" y="15" width="1" height="1" fill="rgb(102,159,85)" opacity="0.482"/><rect x="11" y="15" width="1" height="1" fill="rgb(103,158,86)" opacity="0.157"/><rect x="12" y="15" width="1" height="1" fill="rgb(107,149,94)" opacity="0.004"/></svg>
